<svg width="30" height="30" viewBox="0 0 30 30" fill="none" xmlns="http://www.w3.org/2000/svg">
<g clip-path="url(#clip0_372_841)">
<path d="M7.5 22.5C7.5 23.1875 8.0625 23.75 8.75 23.75H10V28.125C10 29.1625 10.8375 30 11.875 30C12.9125 30 13.75 29.1625 13.75 28.125V23.75H16.25V28.125C16.25 29.1625 17.0875 30 18.125 30C19.1625 30 20 29.1625 20 28.125V23.75H21.25C21.9375 23.75 22.5 23.1875 22.5 22.5V10H7.5V22.5ZM4.375 10C3.3375 10 2.5 10.8375 2.5 11.875V20.625C2.5 21.6625 3.3375 22.5 4.375 22.5C5.4125 22.5 6.25 21.6625 6.25 20.625V11.875C6.25 10.8375 5.4125 10 4.375 10ZM25.625 10C24.5875 10 23.75 10.8375 23.75 11.875V20.625C23.75 21.6625 24.5875 22.5 25.625 22.5C26.6625 22.5 27.5 21.6625 27.5 20.625V11.875C27.5 10.8375 26.6625 10 25.625 10ZM19.4125 2.7L21.0375 1.075C21.2875 0.825 21.2875 0.4375 21.0375 0.1875C20.7875 -0.0625 20.4 -0.0625 20.15 0.1875L18.3 2.0375C17.3125 1.5375 16.1875 1.25 15 1.25C13.8 1.25 12.675 1.5375 11.675 2.0375L9.8125 0.1875C9.5625 -0.0625 9.175 -0.0625 8.925 0.1875C8.675 0.4375 8.675 0.825 8.925 1.075L10.5625 2.7125C8.7125 4.075 7.5 6.2625 7.5 8.75H22.5C22.5 6.2625 21.2875 4.0625 19.4125 2.7ZM12.5 6.25H11.25V5H12.5V6.25ZM18.75 6.25H17.5V5H18.75V6.25Z" fill="#262168"/>
</g>
<defs>
<clipPath id="clip0_372_841">
<rect width="30" height="30" fill="white"/>
</clipPath>
</defs>
</svg>
