<svg width="75" height="75" viewBox="0 0 75 75" fill="none" xmlns="http://www.w3.org/2000/svg">
<g id="Group" filter="url(#filter0_d_342_388)">
<g id="Group_2">
<path id="Vector" d="M62.5834 55.5833L59.625 58.5417C58.7917 59.375 57.5 59.375 56.6667 58.5417C55.8334 57.7084 55.8334 56.4167 56.6667 55.5833L59.625 52.625L51.5417 44.5417L48.5834 47.5C47.75 48.3334 46.4584 48.3334 45.625 47.5C44.7917 46.6667 44.7917 45.375 45.625 44.5417L48.5834 41.5834L40.5 33.5L37.5417 36.4583C36.7084 37.2917 35.4167 37.2917 34.5834 36.4583C33.75 35.625 33.75 34.3333 34.5834 33.5L37.5417 30.5417L29.4167 22.4167L26.4584 25.375C25.625 26.2083 24.3334 26.2083 23.5 25.375C22.6667 24.5417 22.6667 23.25 23.5 22.4167L26.4584 19.4583L18.375 11.375L15.4167 14.3334C14.5834 15.1667 13.2917 15.1667 12.4584 14.3334C11.625 13.5 11.625 12.2084 12.4584 11.375L15.4167 8.41668L9.20835 2.20835C7.91669 0.916684 5.66669 1.83335 5.66669 3.70835V57C5.66669 61.5834 9.41669 65.3333 14 65.3333H67.2917C69.1667 65.3333 70.0834 63.0833 68.75 61.7917L62.5834 55.5833ZM18.1667 48.6667V28.8333L42.1667 52.8334H22.3334C20.0417 52.8334 18.1667 50.9584 18.1667 48.6667Z" fill="#3A0CA3"/>
</g>
</g>
<defs>
<filter id="filter0_d_342_388" x="0.666687" y="0.605774" width="73.7147" height="73.7276" filterUnits="userSpaceOnUse" color-interpolation-filters="sRGB">
<feFlood flood-opacity="0" result="BackgroundImageFix"/>
<feColorMatrix in="SourceAlpha" type="matrix" values="0 0 0 0 0 0 0 0 0 0 0 0 0 0 0 0 0 0 127 0" result="hardAlpha"/>
<feOffset dy="4"/>
<feGaussianBlur stdDeviation="2.5"/>
<feComposite in2="hardAlpha" operator="out"/>
<feColorMatrix type="matrix" values="0 0 0 0 0.929412 0 0 0 0 0.576471 0 0 0 0 0.360784 0 0 0 0.2 0"/>
<feBlend mode="normal" in2="BackgroundImageFix" result="effect1_dropShadow_342_388"/>
<feBlend mode="normal" in="SourceGraphic" in2="effect1_dropShadow_342_388" result="shape"/>
</filter>
</defs>
</svg>
