<svg width="84" height="87" viewBox="0 0 84 87" fill="none" xmlns="http://www.w3.org/2000/svg">
<g id="Group">
<g id="Group_2">
<g id="Group_3">
<path id="Vector" d="M82.2916 70.7083L62.6249 51.0416C60.6249 49.0416 58.4999 48.5833 56.0416 48.5833L45.4583 59.1666C45.4583 61.625 45.9166 63.7916 47.9166 65.75L67.5832 85.4166C69.2082 87.0416 71.8332 87.0416 73.4582 85.4166L82.2916 76.5833C83.9166 75 83.9166 72.3333 82.2916 70.7083Z" fill="#3A0CA3"/>
</g>
<g id="Group_4">
<path id="Vector_2" d="M61.2916 34.5416C62.9166 36.1666 65.5416 36.1666 67.1666 34.5416L70.125 31.5833L78.9583 40.4166C83.8333 35.5416 83.8333 27.625 78.9583 22.75L67.1666 10.9583C65.5416 9.33331 62.9166 9.33331 61.2916 10.9583L58.3333 13.9166V3.33331C58.3333 0.749976 55.1666 -0.625024 53.2916 1.24998L42.7083 11.8333C40.8333 13.7083 42.2083 16.875 44.7916 16.875H55.375L52.4166 19.8333C50.7916 21.4583 50.7916 24.0833 52.4166 25.7083L53.875 27.1666L41.8333 39.2083L24.7083 22V17.8333C24.7083 16.7083 24.25 15.6666 23.5 14.875L15.0833 6.41664C13.4583 4.79164 10.8333 4.79164 9.20829 6.41664L3.29163 12.3333C1.66663 13.9583 1.66663 16.5833 3.29163 18.2083L11.7083 26.6666C12.5 27.4583 13.5416 27.875 14.6666 27.875H18.8333L36.0416 45.0833L32.5 48.625H27.0833C24.875 48.625 22.75 49.5 21.2083 51.0833L1.54163 70.75C-0.0833739 72.375 -0.0833739 75 1.54163 76.625L10.375 85.4583C12 87.0833 14.625 87.0833 16.25 85.4583L35.9166 65.7916C37.5 64.2083 38.375 62.125 38.375 59.9166V54.5416L59.8333 33.0833L61.2916 34.5416Z" fill="#3A0CA3"/>
</g>
</g>
</g>
</svg>
