<svg width="100" height="100" viewBox="0 0 100 100" fill="none" xmlns="http://www.w3.org/2000/svg">
<path d="M39.5834 27.0833V39.5833H27.0834V27.0833H39.5834ZM45.8334 20.8333H20.8334V45.8333H45.8334V20.8333ZM39.5834 60.4166V72.9166H27.0834V60.4166H39.5834ZM45.8334 54.1666H20.8334V79.1666H45.8334V54.1666ZM72.9167 27.0833V39.5833H60.4167V27.0833H72.9167ZM79.1667 20.8333H54.1667V45.8333H79.1667V20.8333ZM54.1667 54.1666H60.4167V60.4166H54.1667V54.1666ZM60.4167 60.4166H66.6667V66.6666H60.4167V60.4166ZM66.6667 54.1666H72.9167V60.4166H66.6667V54.1666ZM54.1667 66.6666H60.4167V72.9166H54.1667V66.6666ZM60.4167 72.9166H66.6667V79.1666H60.4167V72.9166ZM66.6667 66.6666H72.9167V72.9166H66.6667V66.6666ZM72.9167 60.4166H79.1667V66.6666H72.9167V60.4166ZM72.9167 72.9166H79.1667V79.1666H72.9167V72.9166ZM87.5 29.1666C85.2084 29.1666 83.3334 27.2916 83.3334 25V16.6666H75C72.7084 16.6666 70.8334 14.7916 70.8334 12.5C70.8334 10.2083 72.7084 8.33331 75 8.33331H87.5C89.7917 8.33331 91.6667 10.2083 91.6667 12.5V25C91.6667 27.2916 89.7917 29.1666 87.5 29.1666ZM91.6667 87.5V75C91.6667 72.7083 89.7917 70.8333 87.5 70.8333C85.2084 70.8333 83.3334 72.7083 83.3334 75V83.3333H75C72.7084 83.3333 70.8334 85.2083 70.8334 87.5C70.8334 89.7916 72.7084 91.6667 75 91.6667H87.5C89.7917 91.6667 91.6667 89.7916 91.6667 87.5ZM12.5 91.6667H25C27.2917 91.6667 29.1667 89.7916 29.1667 87.5C29.1667 85.2083 27.2917 83.3333 25 83.3333H16.6667V75C16.6667 72.7083 14.7917 70.8333 12.5 70.8333C10.2084 70.8333 8.33337 72.7083 8.33337 75V87.5C8.33337 89.7916 10.2084 91.6667 12.5 91.6667ZM8.33337 12.5V25C8.33337 27.2916 10.2084 29.1666 12.5 29.1666C14.7917 29.1666 16.6667 27.2916 16.6667 25V16.6666H25C27.2917 16.6666 29.1667 14.7916 29.1667 12.5C29.1667 10.2083 27.2917 8.33331 25 8.33331H12.5C10.2084 8.33331 8.33337 10.2083 8.33337 12.5Z" fill="#3A0CA3"/>
</svg>
